/* XPM */
static char * ecico32x22_xpm[] = {
"33 22 17 1",
" 	c None",
".	c #4758BB",
"+	c #8893D3",
"@	c #A9B1DF",
"#	c #B9C0E5",
"$	c #CAD0EC",
"%	c #D3D7EE",
"&	c #DDE0F2",
"*	c #E6E9F6",
"=	c #5868C1",
"-	c #EBEEF8",
";	c #6271C5",
">	c #F0F2FA",
",	c #6776C6",
"'	c #98A2D9",
")	c #FEFEFE",
"!	c #7783CC",
")))))))))))))))))))))))))))))))))",
"))))))))))))))))))))))>%#@@@$&)))",
"))))))))))))))))))))$+;...=..=,'*",
"))))))))))))))))))&+!+!'*)))#!!;#",
")))))))))))))))))$+@#+%))))))$;;*",
"))))))))))))))))%+$$'%))))))))=;>",
")))))))))))))))-+#*@')))))))))!!)",
")))))>@!=;+%)))@'&%+*)))))))))@#)",
"))))#,=,';,,#)>!#*@')))))))))))))",
")))@!!+>)@!'!>#+&&+#)))))))))))))",
"))#+'!>))@+#!&'@*%!&)))))))))))))",
")&!@+#)))+@@!>!#-#!>)))))))))))))",
")''#!*))#+@+#>!$-@!))))))))))))))",
"-!#@+)>'!!!#)>!$-@+))))))))))))))",
"$!$#++.=!@-))>!#*@+))))))))))>>))",
"@+%#++@&))))))!@&@+)))))))))>;%))",
"'+$@#)))))&@))@'&#!)))))))))'.)))",
"@+$'@))))-,'))*!$$+&)))))))$=!)))",
"$!$#'>))*!!>)))#'$''))))))%!,#)))",
">+'#@+'+=!-)))))#++!'*>>*@,+,*)))",
")*+!!;.=@))))))))&',..==..=!#))))",
")))&$$&>)))))))))))-%#@@#$*))))))"};
